<svg width="500" height="500" viewBox="0 0 500 500" fill="none" xmlns="http://www.w3.org/2000/svg">
<rect width="500" height="500" fill="none"/>
<rect x="422.5" y="127.5" width="245" height="345" rx="7.5" transform="rotate(90 422.5 127.5)" stroke="#B9B9B9" stroke-width="5"/>
<mask id="path-2-inside-1_26_20" fill="white">
<path d="M415 125C417.641 125 420.042 126.026 421.829 127.698L256.914 292.614C253.009 296.52 246.677 296.52 242.771 292.614L78.0088 127.852C79.8118 126.088 82.2786 125 85 125H415Z"/>
</mask>
<path d="M421.829 127.698L425.365 131.234L429.02 127.579L425.245 124.047L421.829 127.698ZM256.914 292.614L260.45 296.15V296.15L256.914 292.614ZM78.0088 127.852L74.5125 124.277L70.8984 127.812L74.4733 131.387L78.0088 127.852ZM85 125V120V125ZM415 125V130C416.32 130 417.513 130.507 418.413 131.349L421.829 127.698L425.245 124.047C422.571 121.545 418.962 120 415 120V125ZM421.829 127.698L418.294 124.163L253.379 289.079L256.914 292.614L260.45 296.15L425.365 131.234L421.829 127.698ZM256.914 292.614L253.379 289.079C251.426 291.031 248.26 291.031 246.307 289.079L242.771 292.614L239.236 296.15C245.094 302.008 254.592 302.008 260.45 296.15L256.914 292.614ZM242.771 292.614L246.307 289.079L81.5443 124.316L78.0088 127.852L74.4733 131.387L239.236 296.15L242.771 292.614ZM78.0088 127.852L81.505 131.426C82.4127 130.538 83.639 130 85 130V125V120C80.9181 120 77.211 121.638 74.5125 124.277L78.0088 127.852ZM85 125V130H415V125V120H85V125Z" fill="#B9B9B9" mask="url(#path-2-inside-1_26_20)"/>
<mask id="path-4-inside-2_26_20" fill="white">
<path d="M242.771 287.614C246.677 291.52 253.009 291.52 256.914 287.614L296.752 247.775L421.82 372.845C420.033 374.517 417.632 375.543 414.991 375.543H84.9912C82.2698 375.543 79.8031 374.455 78 372.691L202.924 247.767L242.771 287.614Z"/>
</mask>
<path d="M256.914 287.614L260.45 291.15L260.45 291.15L256.914 287.614ZM296.752 247.775L300.288 244.24L296.752 240.704L293.216 244.24L296.752 247.775ZM421.82 372.845L425.236 376.496L429.011 372.964L425.356 369.309L421.82 372.845ZM84.9912 375.543V380.543V375.543ZM78 372.691L74.4645 369.156L70.8897 372.731L74.5037 376.266L78 372.691ZM202.924 247.767L206.459 244.231L202.924 240.696L199.388 244.231L202.924 247.767ZM242.771 287.614L239.236 291.15C245.094 297.008 254.592 297.008 260.45 291.15L256.914 287.614L253.379 284.079C251.426 286.031 248.26 286.031 246.307 284.079L242.771 287.614ZM256.914 287.614L260.45 291.15L300.288 251.311L296.752 247.775L293.216 244.24L253.378 284.079L256.914 287.614ZM296.752 247.775L293.216 251.311L418.285 376.38L421.82 372.845L425.356 369.309L300.288 244.24L296.752 247.775ZM421.82 372.845L418.404 369.194C417.504 370.036 416.311 370.543 414.991 370.543V375.543V380.543C418.954 380.543 422.562 378.998 425.236 376.496L421.82 372.845ZM414.991 375.543V370.543H84.9912V375.543V380.543H414.991V375.543ZM84.9912 375.543V370.543C83.6302 370.543 82.4039 370.005 81.4963 369.117L78 372.691L74.5037 376.266C77.2022 378.905 80.9093 380.543 84.9912 380.543V375.543ZM78 372.691L81.5355 376.227L206.459 251.302L202.924 247.767L199.388 244.231L74.4645 369.156L78 372.691ZM202.924 247.767L199.388 251.302L239.236 291.15L242.771 287.614L246.307 284.079L206.459 244.231L202.924 247.767Z" fill="#B9B9B9" mask="url(#path-4-inside-2_26_20)"/>
</svg>
