<svg width="500" height="500" viewBox="0 0 500 500" fill="none" xmlns="http://www.w3.org/2000/svg">
<rect x="152.5" y="77.5" width="195" height="345" rx="7.5" stroke="#B9B9B9" stroke-width="5"/>
<path d="M237.726 238.763C256.923 217.189 276.015 201.16 286.331 197.215C292.062 194.336 297.958 194.237 301.664 197.535L308.071 203.235C310.134 205.071 310.318 208.231 308.483 210.294L288.06 233.247C286.224 235.31 283.064 235.494 281.001 233.659L274.594 227.959C273.286 226.794 272.365 225.309 271.819 223.61C264.311 230.306 256.098 238.536 247.868 247.787C239.637 257.037 232.416 266.151 226.639 274.387C228.39 274.732 229.973 275.473 231.282 276.637L237.688 282.338C239.751 284.173 239.936 287.334 238.1 289.397L217.677 312.35C215.842 314.413 212.681 314.597 210.618 312.762L204.212 307.061C200.505 303.763 199.918 297.895 202.111 291.868C204.831 281.163 218.531 260.338 237.726 238.763Z" fill="#B9B9B9"/>
</svg>
